<svg aria-hidden="true" style="width:0;height:0;position:absolute;overflow:hidden" xmlns="http://www.w3.org/2000/svg"><defs><symbol id="icon-burger-menu" viewBox="0 0 32 32"><path d="M26.734 14.666H5.267c-.699 0-1.266.567-1.266 1.266v.134c0 .699.567 1.266 1.266 1.266h21.467c.699 0 1.266-.567 1.266-1.266v-.134c0-.699-.567-1.266-1.266-1.266zm0 6.668H5.267c-.699 0-1.266.567-1.266 1.266v.134c0 .699.567 1.266 1.266 1.266h21.467c.699 0 1.266-.567 1.266-1.266V22.6c0-.699-.567-1.266-1.266-1.266zm0-13.334H5.267c-.698 0-1.266.567-1.266 1.266V9.4c0 .699.567 1.266 1.266 1.266h21.467c.699 0 1.266-.567 1.266-1.266v-.134C28 8.568 27.433 8 26.734 8z"/></symbol><symbol id="icon-close" viewBox="0 0 32 32"><path d="M16 0C7.164 0 0 7.164 0 16c0 8.837 7.164 16 16 16 8.837 0 16-7.163 16-16 0-8.836-7.163-16-16-16zm0 30.032C8.28 30.032 2 23.72 2 16S8.28 2 16 2s14 6.28 14 14-6.28 14.032-14 14.032zm5.656-19.688a1 1 0 0 0-1.414 0l-4.243 4.243-4.243-4.243a1 1 0 0 0-1.413 1.414l-.001-.001L14.582 16l-4.243 4.243a1 1 0 1 0 1.414 1.414l4.244-4.243 4.243 4.243a1 1 0 1 0 1.414-1.413l-.001-.001L17.41 16l4.243-4.243a1 1 0 0 0 0-1.414z"/></symbol><symbol id="icon-ph_phone" viewBox="0 0 32 32"><path d="m27.796 19.808-5.904-2.646a1.994 1.994 0 0 0-1.995.248l.005-.004L16.858 20c-1.926-.936-3.916-2.912-4.852-4.814L14.6 12.1a2.002 2.002 0 0 0 .231-1.993l.005.013v-.014l-2.646-5.9a2.004 2.004 0 0 0-2.086-1.187l.01-.001C6.645 3.488 4 6.43 4 9.99v.011V10c0 9.926 8.074 18 18 18h.012a7.034 7.034 0 0 0 6.968-6.078l.004-.036a2 2 0 0 0-1.175-2.075l-.013-.005zM22 26c-8.832-.01-15.99-7.168-16-15.999V9.98a5.025 5.025 0 0 1 4.334-4.977L10.36 5v.014l2.624 5.876-2.584 3.092a1.997 1.997 0 0 0-.191 2.072l-.005-.012c1.132 2.316 3.466 4.632 5.808 5.764.25.121.543.191.853.191a1.99 1.99 0 0 0 1.212-.409l-.005.004L21.112 19l5.874 2.632H27C26.663 24.11 24.561 26 22.017 26h-.018H22z"/></symbol><symbol id="icon-facebook" viewBox="0 0 32 32"><path d="M18.666 18.001h3.333l1.334-5.334h-4.666v-2.666c0-1.374 0-2.667 2.666-2.667h2v-4.48c-.435-.056-2.076-.186-3.809-.186-3.621 0-6.191 2.209-6.191 6.266v3.734h-4v5.334h4v11.333h5.334V18.002z"/></symbol><symbol id="icon-instagram" viewBox="0 0 32 32"><path d="M16 0c-4.349 0-4.891.021-6.593.093-1.709.085-2.865.35-3.885.745A7.883 7.883 0 0 0 2.69 2.686l-.001.001a7.772 7.772 0 0 0-1.831 2.78L.84 5.52C.446 6.541.179 7.696.095 9.406c-.077 1.703-.093 2.242-.093 6.591 0 4.35.021 4.891.093 6.594.085 1.703.35 2.864.745 3.883a7.85 7.85 0 0 0 1.849 2.834 7.756 7.756 0 0 0 2.78 1.83l.053.018c1.019.391 2.181.662 3.886.745 1.703.078 2.243.094 6.592.094 4.35 0 4.891-.022 6.594-.094 1.703-.083 2.864-.354 3.885-.745a7.901 7.901 0 0 0 2.831-1.848l.001-.001a7.724 7.724 0 0 0 1.831-2.78l.018-.053c.391-1.019.662-2.181.745-3.885.077-1.703.093-2.243.093-6.593 0-4.349-.021-4.891-.091-6.593-.085-1.703-.355-2.871-.746-3.885a7.883 7.883 0 0 0-1.848-2.832l-.001-.001a7.718 7.718 0 0 0-2.778-1.83l-.053-.018C25.46.442 24.299.176 22.595.092c-1.703-.077-2.245-.093-6.594-.093zm0 2.88c4.271 0 4.782.021 6.469.093 1.558.073 2.406.334 2.969.553a4.97 4.97 0 0 1 1.843 1.198c.53.515.937 1.143 1.192 1.839.221.562.48 1.41.553 2.968.072 1.688.093 2.199.093 6.469s-.021 4.782-.098 6.469c-.085 1.558-.344 2.406-.563 2.969a5.237 5.237 0 0 1-1.198 1.843 5.057 5.057 0 0 1-1.809 1.18l-.035.012c-.557.219-1.417.48-2.979.553-1.697.072-2.197.093-6.48.093-4.281 0-4.781-.021-6.48-.098-1.557-.085-2.415-.344-2.978-.563-.76-.303-1.28-.64-1.839-1.2-.563-.562-.921-1.097-1.197-1.843-.224-.555-.48-1.416-.563-2.978-.057-1.678-.085-2.198-.085-6.459 0-4.259.027-4.781.085-6.479.083-1.563.339-2.421.563-2.979.275-.76.634-1.28 1.197-1.843.557-.558 1.079-.918 1.84-1.2.562-.217 1.4-.478 2.963-.557 1.696-.059 2.195-.082 6.473-.082l.065.046zm0 4.907h-.005a8.21 8.21 0 0 0-7.563 11.409l-.02-.054c1.265 3.003 4.184 5.072 7.586 5.072 1.135 0 2.216-.23 3.199-.647l-.054.02c3.003-1.265 5.072-4.184 5.072-7.586v-.006a8.209 8.209 0 0 0-8.209-8.209H16zm0 13.546h-.003a5.33 5.33 0 0 1-5.329-5.329v-.007a5.33 5.33 0 0 1 5.329-5.329H16.006a5.33 5.33 0 0 1 5.329 5.329v.007a5.33 5.33 0 0 1-5.329 5.329h-.005zM26.464 7.458a1.923 1.923 0 0 1-3.691.75l-.005-.012a1.919 1.919 0 0 1 1.773-2.654h.001c1.056 0 1.922.861 1.922 1.918z"/></symbol></defs></svg>