<svg width="140" height="34" fill="none" xmlns="http://www.w3.org/2000/svg"><g clip-path="url('#clip0_313_69')"><path d="m4.25 13.677-2.376 5.568H.698L7.64 3.08h.646l6.963 16.166h-1.245l-2.375-5.568H4.25Zm3.643-8.802c-.016.015-.047.105-.093.27-.215.644-.422 1.19-.622 1.639L4.64 12.756h6.595L8.7 6.806c-.538-1.137-.807-1.78-.807-1.93Zm33.829 14.37V3.26a52.755 52.755 0 0 1 3.666-.157c1.568 0 2.86.396 3.874 1.19 1.015.778 1.522 1.886 1.522 3.323 0 .973-.292 1.878-.876 2.716-.584.839-1.238 1.505-1.96 1.999a155.27 155.27 0 0 0 2.098 2.74c.846 1.047 1.391 1.706 1.637 1.975.938.973 1.999 1.527 3.182 1.661l-.023.719c-.938-.015-1.698-.15-2.282-.404-.585-.27-1.146-.674-1.684-1.213-.523-.539-1.837-2.215-3.943-5.03a56.7 56.7 0 0 1-4.104-.134v6.601h-1.107Zm4.542-7.364c.677 0 1.4-.434 2.168-1.303.768-.868 1.153-1.87 1.153-3.008 0-1.153-.4-2.021-1.2-2.605-.783-.598-1.828-.898-3.135-.898-.692 0-1.499.03-2.421.09v7.611c1.23.075 2.375.113 3.435.113ZM87.037 3.91c-2.014 0-3.658.704-4.934 2.11-1.276 1.408-1.914 3.136-1.914 5.187 0 2.036.722 3.765 2.167 5.187 1.445 1.422 3.205 2.133 5.28 2.133 1.784 0 3.267-.24 4.451-.719v-6.6h1.107v7.094c-1.338.809-3.213 1.213-5.627 1.213-2.398 0-4.427-.801-6.087-2.403-1.66-1.616-2.49-3.585-2.49-5.905 0-2.335.753-4.296 2.26-5.882 1.506-1.602 3.435-2.403 5.787-2.403 1.845 0 3.712.3 5.603.898l-.3.898c-1.844-.539-3.612-.808-5.303-.808Zm36.255 13.202c-1.522-1.601-2.283-3.57-2.283-5.905 0-2.335.761-4.296 2.283-5.882 1.537-1.602 3.474-2.403 5.811-2.403 2.336 0 4.273.8 5.81 2.403 1.537 1.586 2.306 3.547 2.306 5.882 0 2.335-.769 4.304-2.306 5.905-1.537 1.602-3.474 2.403-5.81 2.403-2.337 0-4.274-.801-5.811-2.403Zm.83-11.091c-1.276 1.392-1.914 3.12-1.914 5.186s.638 3.802 1.914 5.21c1.291 1.406 2.951 2.11 4.981 2.11 2.044 0 3.704-.704 4.98-2.11 1.292-1.408 1.937-3.144 1.937-5.21 0-2.065-.645-3.794-1.937-5.186-1.276-1.407-2.936-2.111-4.98-2.111-2.045 0-3.705.704-4.981 2.11Z" fill="#532D00"/><path d="M.165 23.576h139.67" stroke="#532D00" stroke-linecap="round"/><path d="M62.012 30.918c-.429 0-.824-.1-1.186-.299a2.281 2.281 0 0 1-.85-.818 2.213 2.213 0 0 1-.316-1.174c0-.404.105-.776.316-1.116.21-.346.497-.622.86-.827a2.457 2.457 0 0 1 1.215-.308c.37 0 .685.057.949.173.263.115.52.295.77.539v.52a2.383 2.383 0 0 0-.73-.713c-.264-.166-.593-.25-.989-.25-.362 0-.705.093-1.028.28-.316.179-.57.423-.76.73a1.846 1.846 0 0 0-.287.992c0 .385.092.73.277 1.039.184.301.431.539.74.712.317.167.656.25 1.019.25.738 0 1.324-.324 1.759-.972v.52c-.238.244-.501.426-.79.548a2.547 2.547 0 0 1-.97.174Zm4.728-.02c-.421 0-.813-.102-1.176-.308a2.334 2.334 0 0 1-.86-.827 2.176 2.176 0 0 1 0-2.262 2.31 2.31 0 0 1 .86-.837 2.347 2.347 0 0 1 1.176-.308c.429 0 .834.113 1.216.337.382.218.649.504.8.857v-1.088h.317v4.33h-.317v-1.077a2.04 2.04 0 0 1-.83.866 2.344 2.344 0 0 1-1.186.317Zm.02-.27c.362 0 .698-.089 1.008-.269.31-.186.554-.43.731-.73.185-.309.277-.642.277-1.002 0-.352-.092-.683-.277-.99a2.05 2.05 0 0 0-.74-.732 1.923 1.923 0 0 0-1.009-.28c-.362 0-.701.094-1.018.28-.31.186-.56.433-.75.74a1.895 1.895 0 0 0-.277.992c0 .353.092.683.276.991.191.302.445.545.761.731.316.18.656.27 1.018.27Zm5.25-5.705c-.25 0-.481.06-.692.183a1.306 1.306 0 0 0-.682 1.173v.183h1.374v.27h-1.374v4.06h-.316V26.28a1.57 1.57 0 0 1 .83-1.404c.264-.148.55-.222.86-.222v.27Zm3.003 5.716c.343 0 .669-.087.978-.26.31-.174.567-.41.771-.712v.49a2.32 2.32 0 0 1-.8.578c-.29.115-.62.173-.989.173-.408 0-.793-.106-1.156-.318a2.494 2.494 0 0 1-.86-.846 2.159 2.159 0 0 1-.316-1.126 2.19 2.19 0 0 1 1.176-1.963 2.61 2.61 0 0 1 1.226-.289c.685 0 1.268.263 1.749.79l-3.103 2.982c.217.173.428.302.632.385.204.077.435.116.692.116Zm-2.056-2.05c0 .532.181.988.544 1.366l2.895-2.8a2.172 2.172 0 0 0-.632-.394 1.93 1.93 0 0 0-.731-.125c-.402 0-.761.086-1.078.26a1.875 1.875 0 0 0-.998 1.693ZM92.555 30.898c-.402 0-.79-.106-1.166-.317a2.234 2.234 0 0 1-.85-.837v1.049h-.316v-7.217h.316v3.983c.178-.365.454-.657.83-.875.376-.219.77-.328 1.186-.328.428 0 .82.103 1.176.308.362.206.649.481.86.828.21.346.316.725.316 1.135 0 .41-.105.79-.316 1.136-.211.346-.498.622-.86.827a2.311 2.311 0 0 1-1.176.308Zm.02-.27c.362 0 .698-.089 1.008-.269.31-.186.553-.43.73-.73.185-.309.278-.642.278-1.002 0-.352-.093-.683-.277-.99a2.05 2.05 0 0 0-.741-.732 1.974 1.974 0 0 0-2.026 0c-.31.186-.56.433-.751.74a1.897 1.897 0 0 0-.277.992c0 .353.092.683.277.991.19.302.444.545.76.731.317.18.656.27 1.019.27Zm3.708-5.157a.362.362 0 0 1-.247-.096.322.322 0 0 1-.099-.24.31.31 0 0 1 .099-.232.362.362 0 0 1 .247-.096c.092 0 .171.032.237.096a.298.298 0 0 1 .109.231.308.308 0 0 1-.109.24.328.328 0 0 1-.237.097Zm-.158.991h.316v4.33h-.316v-4.33Zm3.48 4.417c-.31 0-.594-.067-.85-.202a1.611 1.611 0 0 1-.84-1.424v-5.677h.316v5.677c0 .256.059.487.178.693.125.205.293.368.503.49.211.116.442.174.692.174v.27Zm2.711 0c-.31 0-.593-.067-.85-.202a1.615 1.615 0 0 1-.613-.587 1.589 1.589 0 0 1-.227-.837v-5.677h.316v5.677c0 .256.06.487.178.693a1.4 1.4 0 0 0 .504.49c.211.116.442.174.692.174v.27Zm1.407-5.408a.363.363 0 0 1-.247-.096.322.322 0 0 1-.099-.24.31.31 0 0 1 .099-.232.363.363 0 0 1 .247-.096c.092 0 .172.032.237.096a.297.297 0 0 1 .109.231.306.306 0 0 1-.109.24.326.326 0 0 1-.237.097Zm-.158.991h.316v4.33h-.316v-4.33Zm3.885 4.436a2.35 2.35 0 0 1-1.176-.308 2.34 2.34 0 0 1-.86-.827 2.183 2.183 0 0 1 0-2.262c.211-.352.498-.631.86-.837a2.35 2.35 0 0 1 1.176-.308c.428 0 .834.113 1.216.337.382.218.649.504.8.857v-1.088h.316v4.33h-.316v-1.077c-.178.359-.454.648-.83.866a2.345 2.345 0 0 1-1.186.317Zm.02-.27c.362 0 .698-.089 1.008-.269.31-.186.553-.43.731-.73.185-.309.277-.642.277-1.002 0-.352-.092-.683-.277-.99a2.043 2.043 0 0 0-.741-.732 1.975 1.975 0 0 0-2.026 0c-.309.186-.56.433-.751.74a1.9 1.9 0 0 0-.277.992c0 .353.093.683.277.991.191.302.445.545.761.731.316.18.656.27 1.018.27Zm3.56-4.166h.316v1.001c.132-.314.323-.561.573-.74.257-.18.547-.27.87-.27.204 0 .411.041.622.125v.356a1.054 1.054 0 0 0-.642-.212c-.237 0-.468.07-.692.212a1.66 1.66 0 0 0-.533.567 1.54 1.54 0 0 0-.198.76v2.532h-.316v-4.33Zm4.961 4.436a2.358 2.358 0 0 1-2.036-1.136 2.141 2.141 0 0 1-.316-1.135c0-.41.105-.789.316-1.135a2.358 2.358 0 0 1 2.036-1.136c.415 0 .81.11 1.186.328.375.211.652.49.83.837v-3.945h.316v7.216h-.316v-1.048a2.216 2.216 0 0 1-.86.837 2.29 2.29 0 0 1-1.156.317Zm-.01-.27c.362 0 .698-.089 1.008-.269.316-.186.567-.43.751-.73a1.848 1.848 0 0 0 0-1.983 2.1 2.1 0 0 0-.751-.741 1.924 1.924 0 0 0-1.008-.28c-.362 0-.698.094-1.008.28-.31.18-.557.423-.741.731a1.965 1.965 0 0 0-.01 1.992c.184.302.431.545.741.731.316.18.656.27 1.018.27Zm7.856.29c-.428 0-.823-.1-1.186-.299a2.288 2.288 0 0 1-.85-.818 2.22 2.22 0 0 1-.316-1.174c0-.404.106-.776.316-1.116a2.34 2.34 0 0 1 .86-.827 2.458 2.458 0 0 1 1.216-.308c.369 0 .685.057.948.173.264.115.521.295.771.539v.52a2.378 2.378 0 0 0-.731-.713c-.264-.166-.593-.25-.988-.25-.363 0-.705.093-1.028.28-.316.179-.57.422-.761.73a1.848 1.848 0 0 0-.287.992c0 .385.093.73.277 1.039.185.301.432.539.741.712.316.167.656.25 1.018.25.738 0 1.324-.324 1.759-.972v.52a2.397 2.397 0 0 1-.79.548 2.554 2.554 0 0 1-.969.174Zm4.324-.039c-.31 0-.593-.067-.85-.202a1.615 1.615 0 0 1-.613-.587 1.589 1.589 0 0 1-.227-.837v-5.677h.316v5.677c0 .256.059.487.178.693a1.4 1.4 0 0 0 .504.49c.211.116.441.174.692.174v.27Zm2.978.02c-.626 0-1.11-.168-1.452-.501-.336-.334-.504-.805-.504-1.415v-2.52h.316v2.52c0 .526.141.934.425 1.223.29.282.695.423 1.215.423.316 0 .606-.068.87-.202a1.59 1.59 0 0 0 .85-1.444v-2.52h.316v4.33h-.316v-.809c-.152.27-.379.49-.682.664-.303.167-.649.25-1.038.25Zm5.616 0c-.402 0-.79-.107-1.166-.318a2.237 2.237 0 0 1-.85-.837v1.049h-.316v-7.217h.316v3.983a2.03 2.03 0 0 1 .83-.875 2.328 2.328 0 0 1 1.186-.328c.429 0 .821.103 1.176.308.363.206.649.481.86.828.211.346.316.725.316 1.135 0 .41-.105.79-.316 1.136a2.332 2.332 0 0 1-.86.827 2.307 2.307 0 0 1-1.176.308Zm.02-.27c.362 0 .698-.09 1.008-.27.31-.186.554-.43.731-.73.185-.309.277-.642.277-1.002 0-.352-.092-.683-.277-.99a2.043 2.043 0 0 0-.741-.732 1.978 1.978 0 0 0-2.026 0c-.309.186-.56.433-.751.74a1.9 1.9 0 0 0-.276.992c0 .353.092.683.276.991.191.302.445.545.761.731.316.18.656.27 1.018.27ZM81.974 26.488c-.105-.122-.22-.253-.346-.395a2.247 2.247 0 0 1-.306-.48 1.586 1.586 0 0 1-.119-.626c0-.257.06-.488.178-.693a1.28 1.28 0 0 1 .534-.481c.23-.122.51-.183.84-.183.323 0 .59.07.8.212.218.134.38.308.485.52.112.205.168.42.168.644 0 .16-.033.314-.1.462a1.701 1.701 0 0 1-.286.433c-.118.135-.267.27-.445.404a6.17 6.17 0 0 1-.612.404c-.178.103-.382.212-.613.327a5.27 5.27 0 0 0-.662.395c-.21.147-.385.33-.524.548-.138.212-.207.475-.207.79 0 .32.079.596.237.827.158.231.372.404.642.52.27.115.57.173.9.173.395 0 .75-.084 1.067-.25.316-.174.61-.398.88-.674.27-.282.526-.59.77-.924.25-.34.5-.676.751-1.01l.237.144c-.263.334-.523.677-.78 1.03-.25.353-.518.677-.8.972-.284.295-.6.535-.95.721-.349.18-.744.27-1.185.27a2.62 2.62 0 0 1-1.038-.202 1.824 1.824 0 0 1-.761-.616c-.191-.27-.287-.593-.287-.972 0-.282.05-.53.149-.74.105-.212.24-.395.405-.55.165-.16.342-.298.533-.413a5.99 5.99 0 0 1 .554-.298c.184-.09.342-.174.474-.25.422-.244.751-.491.988-.742.238-.25.356-.51.356-.779 0-.18-.043-.353-.128-.52a.991.991 0 0 0-.376-.413c-.165-.116-.379-.174-.642-.174-.409 0-.718.106-.93.318a1.068 1.068 0 0 0-.305.77c0 .301.072.552.217.75.151.2.306.392.464.578l3.736 4.157h-.376l-3.587-3.984Z" fill="#532D00"/></g><defs><clipPath id="clip0_313_69"><path fill="#fff" d="M0 0h140v34H0z"/></clipPath></defs></svg>