<svg aria-hidden="true" style="position: absolute; width: 0; height: 0; overflow: hidden;" version="1.1" xmlns="http://www.w3.org/2000/svg" xmlns:xlink="http://www.w3.org/1999/xlink">
<defs>
<symbol id="icon-burger-menu" viewBox="0 0 32 32">
<path d="M26.734 14.666h-21.467c-0.699 0-1.266 0.567-1.266 1.266v0.134c0 0.699 0.567 1.266 1.266 1.266h21.467c0.699 0 1.266-0.567 1.266-1.266v-0.134c0-0.699-0.567-1.266-1.266-1.266zM26.734 21.334h-21.467c-0.699 0-1.266 0.567-1.266 1.266v0.134c0 0.699 0.567 1.266 1.266 1.266h21.467c0.699 0 1.266-0.567 1.266-1.266v-0.134c0-0.699-0.567-1.266-1.266-1.266zM26.734 8h-21.467c-0.698 0-1.266 0.567-1.266 1.266v0.134c0 0.699 0.567 1.266 1.266 1.266h21.467c0.699 0 1.266-0.567 1.266-1.266v-0.134c0-0.698-0.567-1.266-1.266-1.266z"></path>
</symbol>
<symbol id="icon-close" viewBox="0 0 32 32">
<path d="M16 0c-8.836 0-16 7.164-16 16 0 8.837 7.164 16 16 16 8.837 0 16-7.163 16-16 0-8.836-7.163-16-16-16zM16 30.032c-7.72 0-14-6.312-14-14.032s6.28-14 14-14 14 6.28 14 14-6.28 14.032-14 14.032zM21.656 10.344c-0.181-0.181-0.431-0.292-0.707-0.292s-0.526 0.112-0.707 0.292v0l-4.243 4.243-4.243-4.243c-0.178-0.166-0.418-0.268-0.682-0.268-0.552 0-1 0.448-1 1 0 0.264 0.102 0.504 0.269 0.682l-0.001-0.001 4.24 4.243-4.243 4.243c-0.188 0.182-0.305 0.437-0.305 0.719 0 0.552 0.448 1 1 1 0.282 0 0.537-0.117 0.719-0.305l4.244-4.243 4.243 4.243c0.183 0.196 0.443 0.318 0.732 0.318 0.552 0 1-0.448 1-1 0-0.289-0.122-0.549-0.318-0.731l-0.001-0.001-4.243-4.243 4.243-4.243c0.181-0.181 0.292-0.431 0.292-0.707s-0.112-0.526-0.292-0.707v0z"></path>
</symbol>
<symbol id="icon-ph_phone" viewBox="0 0 32 32">
<path d="M27.796 19.808l-5.904-2.646c-0.231-0.101-0.501-0.16-0.784-0.16-0.455 0-0.874 0.152-1.211 0.408l0.005-0.004-3.044 2.594c-1.926-0.936-3.916-2.912-4.852-4.814l2.594-3.086c0.248-0.329 0.396-0.745 0.396-1.195 0-0.284-0.059-0.553-0.165-0.798l0.005 0.013v-0.014l-2.646-5.9c-0.316-0.714-1.018-1.203-1.834-1.203-0.085 0-0.169 0.005-0.252 0.016l0.010-0.001c-3.469 0.47-6.114 3.412-6.114 6.972 0 0.004 0 0.007 0 0.011v-0.001c0 9.926 8.074 18 18 18 0.004 0 0.008 0 0.012 0 3.56 0 6.502-2.645 6.968-6.078l0.004-0.036c0.010-0.074 0.015-0.159 0.015-0.246 0-0.816-0.489-1.519-1.19-1.829l-0.013-0.005zM22 26c-8.832-0.010-15.99-7.168-16-15.999v-0.001c-0-0.006-0-0.013-0-0.020 0-2.541 1.886-4.641 4.334-4.977l0.026-0.003v0.014l2.624 5.876-2.584 3.092c-0.246 0.329-0.394 0.743-0.394 1.192 0 0.316 0.073 0.614 0.203 0.88l-0.005-0.012c1.132 2.316 3.466 4.632 5.808 5.764 0.25 0.121 0.543 0.191 0.853 0.191 0.456 0 0.875-0.152 1.212-0.409l-0.005 0.004 3.040-2.592 5.874 2.632h0.014c-0.337 2.478-2.439 4.368-4.983 4.368-0.006 0-0.012 0-0.018-0h0.001z"></path>
</symbol>
</defs>
</svg>
