<svg aria-hidden="true" style="position: absolute; width: 0; height: 0; overflow: hidden;" version="1.1" xmlns="http://www.w3.org/2000/svg" xmlns:xlink="http://www.w3.org/1999/xlink">
<defs>
<symbol id="icon-burger-menu" viewBox="0 0 32 32">
<path d="M26.734 14.666h-21.467c-0.699 0-1.266 0.567-1.266 1.266v0.134c0 0.699 0.567 1.266 1.266 1.266h21.467c0.699 0 1.266-0.567 1.266-1.266v-0.134c0-0.699-0.567-1.266-1.266-1.266zM26.734 21.334h-21.467c-0.699 0-1.266 0.567-1.266 1.266v0.134c0 0.699 0.567 1.266 1.266 1.266h21.467c0.699 0 1.266-0.567 1.266-1.266v-0.134c0-0.699-0.567-1.266-1.266-1.266zM26.734 8h-21.467c-0.698 0-1.266 0.567-1.266 1.266v0.134c0 0.699 0.567 1.266 1.266 1.266h21.467c0.699 0 1.266-0.567 1.266-1.266v-0.134c0-0.698-0.567-1.266-1.266-1.266z"></path>
</symbol>
<symbol id="icon-close" viewBox="0 0 32 32">
<path d="M16 0c-8.836 0-16 7.164-16 16 0 8.837 7.164 16 16 16 8.837 0 16-7.163 16-16 0-8.836-7.163-16-16-16zM16 30.032c-7.72 0-14-6.312-14-14.032s6.28-14 14-14 14 6.28 14 14-6.28 14.032-14 14.032zM21.656 10.344c-0.181-0.181-0.431-0.292-0.707-0.292s-0.526 0.112-0.707 0.292v0l-4.243 4.243-4.243-4.243c-0.178-0.166-0.418-0.268-0.682-0.268-0.552 0-1 0.448-1 1 0 0.264 0.102 0.504 0.269 0.682l-0.001-0.001 4.24 4.243-4.243 4.243c-0.188 0.182-0.305 0.437-0.305 0.719 0 0.552 0.448 1 1 1 0.282 0 0.537-0.117 0.719-0.305l4.244-4.243 4.243 4.243c0.183 0.196 0.443 0.318 0.732 0.318 0.552 0 1-0.448 1-1 0-0.289-0.122-0.549-0.318-0.731l-0.001-0.001-4.243-4.243 4.243-4.243c0.181-0.181 0.292-0.431 0.292-0.707s-0.112-0.526-0.292-0.707v0z"></path>
</symbol>
<symbol id="icon-ph_phone" viewBox="0 0 32 32">
<path d="M27.796 19.808l-5.904-2.646c-0.231-0.101-0.501-0.16-0.784-0.16-0.455 0-0.874 0.152-1.211 0.408l0.005-0.004-3.044 2.594c-1.926-0.936-3.916-2.912-4.852-4.814l2.594-3.086c0.248-0.329 0.396-0.745 0.396-1.195 0-0.284-0.059-0.553-0.165-0.798l0.005 0.013v-0.014l-2.646-5.9c-0.316-0.714-1.018-1.203-1.834-1.203-0.085 0-0.169 0.005-0.252 0.016l0.010-0.001c-3.469 0.47-6.114 3.412-6.114 6.972 0 0.004 0 0.007 0 0.011v-0.001c0 9.926 8.074 18 18 18 0.004 0 0.008 0 0.012 0 3.56 0 6.502-2.645 6.968-6.078l0.004-0.036c0.010-0.074 0.015-0.159 0.015-0.246 0-0.816-0.489-1.519-1.19-1.829l-0.013-0.005zM22 26c-8.832-0.010-15.99-7.168-16-15.999v-0.001c-0-0.006-0-0.013-0-0.020 0-2.541 1.886-4.641 4.334-4.977l0.026-0.003v0.014l2.624 5.876-2.584 3.092c-0.246 0.329-0.394 0.743-0.394 1.192 0 0.316 0.073 0.614 0.203 0.88l-0.005-0.012c1.132 2.316 3.466 4.632 5.808 5.764 0.25 0.121 0.543 0.191 0.853 0.191 0.456 0 0.875-0.152 1.212-0.409l-0.005 0.004 3.040-2.592 5.874 2.632h0.014c-0.337 2.478-2.439 4.368-4.983 4.368-0.006 0-0.012 0-0.018-0h0.001z"></path>
</symbol>
<symbol id="icon-facebook" viewBox="0 0 32 32">
<path d="M18.666 18.001h3.333l1.334-5.334h-4.666v-2.666c0-1.374 0-2.667 2.666-2.667h2v-4.48c-0.435-0.056-2.076-0.186-3.809-0.186-3.621 0-6.191 2.209-6.191 6.266v3.734h-4v5.334h4v11.333h5.334v-11.333z"></path>
</symbol>
<symbol id="icon-instagram" viewBox="0 0 32 32">
<path d="M16 0c-4.349 0-4.891 0.021-6.593 0.093-1.709 0.085-2.865 0.35-3.885 0.745-1.109 0.426-2.054 1.054-2.832 1.848l-0.001 0.001c-0.797 0.778-1.426 1.723-1.831 2.78l-0.018 0.053c-0.394 1.021-0.661 2.176-0.745 3.886-0.077 1.703-0.093 2.242-0.093 6.591 0 4.35 0.021 4.891 0.093 6.594 0.085 1.703 0.35 2.864 0.745 3.883 0.403 1.069 1.034 2.034 1.849 2.834 0.778 0.797 1.723 1.426 2.78 1.83l0.053 0.018c1.019 0.391 2.181 0.662 3.886 0.745 1.703 0.078 2.243 0.094 6.592 0.094 4.35 0 4.891-0.022 6.594-0.094 1.703-0.083 2.864-0.354 3.885-0.745 1.108-0.426 2.053-1.055 2.831-1.848l0.001-0.001c0.798-0.777 1.428-1.723 1.831-2.78l0.018-0.053c0.391-1.019 0.662-2.181 0.745-3.885 0.077-1.703 0.093-2.243 0.093-6.593 0-4.349-0.021-4.891-0.091-6.593-0.085-1.703-0.355-2.871-0.746-3.885-0.426-1.109-1.054-2.054-1.848-2.832l-0.001-0.001c-0.776-0.797-1.721-1.427-2.778-1.83l-0.053-0.018c-1.021-0.395-2.182-0.661-3.886-0.745-1.703-0.077-2.245-0.093-6.594-0.093zM16 2.88c4.271 0 4.782 0.021 6.469 0.093 1.558 0.073 2.406 0.334 2.969 0.553 0.696 0.257 1.326 0.666 1.843 1.198 0.53 0.515 0.937 1.143 1.192 1.839 0.221 0.562 0.48 1.41 0.553 2.968 0.072 1.688 0.093 2.199 0.093 6.469s-0.021 4.782-0.098 6.469c-0.085 1.558-0.344 2.406-0.563 2.969-0.279 0.72-0.686 1.335-1.198 1.843l-0 0c-0.507 0.514-1.122 0.92-1.809 1.18l-0.035 0.012c-0.557 0.219-1.417 0.48-2.979 0.553-1.697 0.072-2.197 0.093-6.48 0.093-4.281 0-4.781-0.021-6.48-0.098-1.557-0.085-2.415-0.344-2.978-0.563-0.76-0.303-1.28-0.64-1.839-1.2-0.563-0.562-0.921-1.097-1.197-1.843-0.224-0.555-0.48-1.416-0.563-2.978-0.057-1.678-0.085-2.198-0.085-6.459 0-4.259 0.027-4.781 0.085-6.479 0.083-1.563 0.339-2.421 0.563-2.979 0.275-0.76 0.634-1.28 1.197-1.843 0.557-0.558 1.079-0.918 1.84-1.2 0.562-0.217 1.4-0.478 2.963-0.557 1.696-0.059 2.195-0.082 6.473-0.082l0.065 0.046zM16 7.787c-0.001 0-0.003 0-0.005 0-4.534 0-8.21 3.676-8.21 8.21 0 1.135 0.23 2.216 0.647 3.199l-0.020-0.054c1.265 3.003 4.184 5.072 7.586 5.072 1.135 0 2.216-0.23 3.199-0.647l-0.054 0.020c3.003-1.265 5.072-4.184 5.072-7.586 0-0.001 0-0.002 0-0.003v0c0-0.001 0-0.002 0-0.003 0-4.534-3.675-8.209-8.209-8.209-0.002 0-0.004 0-0.006 0h0zM16 21.333c-0.001 0-0.002 0-0.003 0-2.943 0-5.329-2.386-5.329-5.329 0-0.001 0-0.002 0-0.004v0c0-0.001 0-0.002 0-0.003 0-2.943 2.386-5.329 5.329-5.329 0.001 0 0.002 0 0.004 0h-0c0.001 0 0.003 0 0.005 0 2.943 0 5.329 2.386 5.329 5.329 0 0.001 0 0.002 0 0.004v-0c0 0.001 0 0.002 0 0.003 0 2.943-2.386 5.329-5.329 5.329-0.002 0-0.003 0-0.005 0h0zM26.464 7.458c-0.005 1.058-0.864 1.914-1.923 1.914-0.793 0-1.473-0.479-1.768-1.164l-0.005-0.012c-0.093-0.217-0.146-0.47-0.146-0.735 0-1.060 0.859-1.919 1.919-1.919 0 0 0.001 0 0.001 0h-0c1.056 0 1.922 0.861 1.922 1.918z"></path>
</symbol>
<symbol id="icon-phoneBtnHero" viewBox="0 0 32 32">
<path d="M18.274 5.806c0.089-0.323 0.38-0.555 0.726-0.555 0.069 0 0.135 0.009 0.198 0.026l-0.005-0.001c3.694 0.986 6.545 3.837 7.515 7.458l0.017 0.074c0.016 0.058 0.025 0.124 0.025 0.193 0 0.414-0.336 0.75-0.75 0.75-0.345 0-0.636-0.234-0.723-0.551l-0.001-0.005c-0.846-3.173-3.295-5.622-6.405-6.454l-0.063-0.014c-0.323-0.088-0.557-0.379-0.557-0.725 0-0.069 0.009-0.136 0.027-0.2l-0.001 0.005zM17.806 10.725c1.819 0.486 2.984 1.65 3.47 3.469 0.1 0.305 0.382 0.521 0.715 0.521 0.415 0 0.751-0.336 0.751-0.751 0-0.055-0.006-0.109-0.017-0.161l0.001 0.005c-0.625-2.339-2.192-3.907-4.531-4.531-0.058-0.016-0.124-0.025-0.193-0.025-0.414 0-0.75 0.336-0.75 0.75 0 0.345 0.234 0.636 0.551 0.723l0.005 0.001zM27.737 22.85c-0.451 3.346-3.289 5.899-6.723 5.899-0.005 0-0.010 0-0.015-0h0.001c-9.787 0-17.75-7.962-17.75-17.75 0-0.004 0-0.008 0-0.012 0-3.433 2.551-6.27 5.861-6.72l0.035-0.004c0.063-0.008 0.137-0.013 0.211-0.013 0.717 0 1.334 0.432 1.604 1.050l0.004 0.011 2.638 5.888c0.092 0.206 0.145 0.446 0.145 0.698 0 0.389-0.127 0.747-0.341 1.038l0.003-0.005-2.634 3.131c-0.015 0.030-0.024 0.066-0.024 0.105s0.009 0.074 0.025 0.106l-0.001-0.001c0.958 1.96 3.013 4 5 4.957 0.029 0.014 0.063 0.022 0.098 0.022 0.041 0 0.080-0.011 0.113-0.029l-0.001 0.001 3.086-2.625c0.288-0.216 0.651-0.346 1.044-0.346 0.248 0 0.484 0.052 0.697 0.144l-0.011-0.004 5.905 2.647c0.619 0.279 1.042 0.89 1.042 1.6 0 0.076-0.005 0.151-0.014 0.225l0.001-0.009v-0.003zM26.25 22.665c0-0.006 0.001-0.012 0.001-0.019 0-0.103-0.062-0.192-0.151-0.231l-0.002-0.001-5.906-2.646c-0.026-0.010-0.056-0.017-0.088-0.017-0.041 0-0.080 0.010-0.114 0.029l0.001-0.001-3.085 2.625c-0.287 0.216-0.65 0.345-1.043 0.345-0.272 0-0.529-0.062-0.758-0.173l0.010 0.005c-2.295-1.109-4.583-3.374-5.691-5.648-0.109-0.221-0.172-0.482-0.172-0.757 0-0.357 0.107-0.689 0.291-0.966l-0.004 0.006c0.017-0.027 0.034-0.050 0.053-0.072l-0.001 0.001 2.632-3.136c0.015-0.031 0.023-0.067 0.023-0.105s-0.008-0.074-0.024-0.106l0.001 0.002-2.632-5.888c-0.035-0.095-0.124-0.162-0.228-0.165h-0.030c-2.601 0.356-4.583 2.564-4.583 5.234 0 0.006 0 0.012 0 0.017v-0.001c0 8.96 7.289 16.25 16.249 16.25 0.005 0 0.011 0 0.016 0 2.671 0 4.879-1.983 5.231-4.558l0.003-0.027z"></path>
</symbol>
<symbol id="icon-arrowNext" viewBox="0 0 32 32">
<path d="M19.785 9.483c0.113 0 0.215 0.047 0.288 0.123l0 0 5.887 6.105c0.069 0.072 0.112 0.169 0.112 0.277s-0.043 0.205-0.112 0.277l0-0-5.913 6.129c-0.074 0.081-0.18 0.132-0.298 0.132-0.164 0-0.305-0.098-0.367-0.239l-0.001-0.003c-0.020-0.046-0.032-0.1-0.032-0.157 0-0.113 0.047-0.215 0.122-0.287l0-0 5.646-5.852-5.62-5.826c-0.068-0.072-0.11-0.169-0.11-0.276 0-0.22 0.178-0.399 0.398-0.401h0z"></path>
<path d="M6.329 15.588h19.344c0.221 0 0.4 0.179 0.4 0.4s-0.179 0.4-0.4 0.4v0h-19.344c-0.221 0-0.4-0.179-0.4-0.4s0.179-0.4 0.4-0.4v0z"></path>
</symbol>
</defs>
</svg>
