<svg width="140" height="34" viewBox="0 0 140 34" fill="none" xmlns="http://www.w3.org/2000/svg">
<g clip-path="url(#clip0_313_69)">
<path d="M4.2493 13.677L1.87424 19.2453H0.698242L7.63895 3.07924H8.2846L15.2484 19.2453H14.0032L11.6281 13.677H4.2493ZM7.8926 4.87547C7.87721 4.89045 7.84648 4.98026 7.80036 5.1449C7.58516 5.78856 7.37763 6.3349 7.17777 6.78396L4.6413 12.7564H11.2361L8.69965 6.80641C8.16163 5.66879 7.8926 5.02517 7.8926 4.87547ZM41.7219 19.2453V3.25887C43.1821 3.15408 44.4043 3.1017 45.3882 3.1017C46.9562 3.1017 48.2475 3.49837 49.2621 4.2917C50.2767 5.07007 50.784 6.17773 50.784 7.61471C50.784 8.58766 50.4918 9.49328 49.9077 10.3315C49.3237 11.1697 48.6702 11.8358 47.9478 12.3298C48.5166 13.0932 49.216 14.0063 50.0461 15.0691C50.8917 16.1169 51.4372 16.7755 51.6833 17.0449C52.6211 18.0178 53.6818 18.5717 54.8654 18.7064L54.8423 19.4249C53.9045 19.4099 53.1436 19.2752 52.5595 19.0208C51.9755 18.7513 51.4142 18.3472 50.8762 17.8083C50.3534 17.2694 49.0391 15.5929 46.9332 12.7789C45.4268 12.7789 44.0584 12.734 42.8287 12.6441V19.2453H41.7219ZM46.2645 11.8808C46.9407 11.8808 47.6635 11.4467 48.432 10.5785C49.2005 9.7103 49.5849 8.70743 49.5849 7.56981C49.5849 6.41724 49.1854 5.54905 48.3859 4.96528C47.6019 4.36653 46.5566 4.06717 45.2499 4.06717C44.5581 4.06717 43.751 4.09709 42.8287 4.15698V11.7685C44.0584 11.8433 45.2038 11.8808 46.2645 11.8808ZM87.0371 3.91C85.0234 3.91 83.3786 4.61351 82.1025 6.02056C80.8267 7.42762 80.1886 9.15649 80.1886 11.2072C80.1886 13.2429 80.9113 14.9718 82.3561 16.3938C83.8013 17.8158 85.5613 18.5268 87.6366 18.5268C89.42 18.5268 90.9034 18.2873 92.087 17.8083V11.2072H93.1938V18.3023C91.8564 19.1106 89.981 19.5147 87.5674 19.5147C85.1693 19.5147 83.1401 18.7139 81.4799 17.1123C79.8197 15.4957 78.9895 13.5273 78.9895 11.2072C78.9895 8.87207 79.7429 6.9112 81.2493 5.32453C82.756 3.7229 84.6851 2.92207 87.0371 2.92207C88.8818 2.92207 90.7495 3.22143 92.6404 3.82019L92.3406 4.7183C90.4959 4.17943 88.7283 3.91 87.0371 3.91ZM123.292 17.1123C121.77 15.5106 121.009 13.5423 121.009 11.2072C121.009 8.87207 121.77 6.9112 123.292 5.32453C124.829 3.7229 126.766 2.92207 129.103 2.92207C131.439 2.92207 133.376 3.7229 134.913 5.32453C136.45 6.9112 137.219 8.87207 137.219 11.2072C137.219 13.5423 136.45 15.5106 134.913 17.1123C133.376 18.7139 131.439 19.5147 129.103 19.5147C126.766 19.5147 124.829 18.7139 123.292 17.1123ZM124.122 6.02056C122.846 7.41264 122.208 9.14151 122.208 11.2072C122.208 13.2728 122.846 15.0092 124.122 16.4162C125.413 17.8233 127.073 18.5268 129.103 18.5268C131.147 18.5268 132.807 17.8233 134.083 16.4162C135.375 15.0092 136.02 13.2728 136.02 11.2072C136.02 9.14151 135.375 7.41264 134.083 6.02056C132.807 4.61351 131.147 3.91 129.103 3.91C127.058 3.91 125.398 4.61351 124.122 6.02056Z" fill="#532D00"/>
<path d="M0.164551 23.5755H139.835" stroke="#532D00" stroke-linecap="round"/>
<path d="M62.0117 30.9176C61.5834 30.9176 61.1881 30.8181 60.8258 30.6193C60.47 30.4204 60.1867 30.1477 59.9759 29.8013C59.7651 29.4549 59.6597 29.0636 59.6597 28.6274C59.6597 28.2232 59.7651 27.8511 59.9759 27.5111C60.1867 27.1647 60.4733 26.8889 60.8357 26.6836C61.2046 26.4783 61.6098 26.3757 62.0512 26.3757C62.4201 26.3757 62.7364 26.4334 62.9999 26.5489C63.2634 26.6643 63.5204 26.844 63.7707 27.0877V27.6074C63.5533 27.293 63.3095 27.0557 63.0394 26.8953C62.7759 26.7285 62.4465 26.6451 62.0512 26.6451C61.6888 26.6451 61.3463 26.7381 61.0234 26.9242C60.7072 27.1038 60.4536 27.3476 60.2625 27.6555C60.0714 27.9634 59.9759 28.2938 59.9759 28.6466C59.9759 29.0315 60.0681 29.3779 60.2526 29.6859C60.4371 29.9874 60.6841 30.2247 60.9938 30.3979C61.31 30.5647 61.6493 30.6481 62.0117 30.6481C62.7496 30.6481 63.3359 30.3242 63.7707 29.6762V30.1959C63.5335 30.4396 63.27 30.6225 62.9801 30.7443C62.6968 30.8598 62.374 30.9176 62.0117 30.9176ZM66.7404 30.8983C66.3187 30.8983 65.9267 30.7957 65.5644 30.5904C65.202 30.3851 64.9154 30.1093 64.7046 29.7628C64.4938 29.41 64.3884 29.0315 64.3884 28.6274C64.3884 28.2232 64.4938 27.8479 64.7046 27.5015C64.9154 27.1487 65.202 26.8696 65.5644 26.6643C65.9267 26.4591 66.3187 26.3564 66.7404 26.3564C67.1686 26.3564 67.5738 26.4687 67.9559 26.6932C68.338 26.9113 68.6048 27.1968 68.7564 27.5496V26.4623H69.0726V30.7925H68.7564V29.7147C68.5785 30.074 68.3018 30.3626 67.9263 30.5808C67.5573 30.7925 67.162 30.8983 66.7404 30.8983ZM66.7601 30.6289C67.1225 30.6289 67.4585 30.5391 67.7681 30.3594C68.0778 30.1734 68.3216 29.9296 68.4994 29.6281C68.6839 29.3202 68.7761 28.9866 68.7761 28.6274C68.7761 28.2745 68.6839 27.9442 68.4994 27.6362C68.315 27.3283 68.0679 27.0845 67.7583 26.9049C67.4486 26.7189 67.1126 26.6259 66.7503 26.6259C66.3879 26.6259 66.0486 26.7189 65.7324 26.9049C65.4227 27.0909 65.1724 27.3379 64.9813 27.6459C64.7968 27.9538 64.7046 28.2842 64.7046 28.637C64.7046 28.9898 64.7968 29.3202 64.9813 29.6281C65.1724 29.9296 65.426 30.1734 65.7423 30.3594C66.0585 30.5391 66.3978 30.6289 66.7601 30.6289ZM72.01 24.9226C71.7596 24.9226 71.529 24.9836 71.3182 25.1055C71.1074 25.2209 70.9394 25.3845 70.8142 25.5962C70.6956 25.8015 70.6363 26.0293 70.6363 26.2794V26.4623H72.01V26.7317H70.6363V30.7925H70.3201V26.2794C70.3201 25.9779 70.3926 25.7053 70.5375 25.4615C70.689 25.2113 70.8933 25.0157 71.1502 24.8745C71.4137 24.727 71.7003 24.6532 72.01 24.6532V24.9226ZM75.0129 30.6385C75.3555 30.6385 75.6816 30.5519 75.9912 30.3787C76.3009 30.2055 76.5578 29.9681 76.7621 29.6666V30.1574C76.5183 30.4204 76.2515 30.6128 75.9616 30.7347C75.6717 30.8502 75.3423 30.9079 74.9734 30.9079C74.5649 30.9079 74.1795 30.8021 73.8171 30.5904C73.4614 30.3787 73.1748 30.0964 72.9574 29.7436C72.7465 29.3908 72.6411 29.0155 72.6411 28.6177C72.6411 28.1879 72.7465 27.803 72.9574 27.463C73.1682 27.1166 73.4548 26.8472 73.8171 26.6547C74.1861 26.4623 74.5945 26.366 75.0425 26.366C75.7277 26.366 76.3108 26.6291 76.7917 27.1551L73.6887 30.1381C73.9061 30.3113 74.1169 30.4396 74.3211 30.523C74.5254 30.6 74.756 30.6385 75.0129 30.6385ZM72.9574 28.5889C72.9574 29.1213 73.1385 29.5768 73.5009 29.9553L76.3964 27.1551C76.179 26.9691 75.9682 26.8376 75.764 26.7606C75.5597 26.6772 75.316 26.6355 75.0327 26.6355C74.6308 26.6355 74.2717 26.7221 73.9555 26.8953C73.6458 27.0621 73.4021 27.293 73.2242 27.5881C73.0463 27.8832 72.9574 28.2168 72.9574 28.5889Z" fill="#532D00"/>
<path d="M92.5549 30.8983C92.153 30.8983 91.7643 30.7924 91.3888 30.5808C91.0198 30.3691 90.7365 30.09 90.5389 29.7436V30.7925H90.2227V23.5755H90.5389V27.5592C90.7168 27.1936 90.9935 26.9017 91.369 26.6836C91.7445 26.4655 92.1398 26.3564 92.5549 26.3564C92.9831 26.3564 93.3751 26.4591 93.7309 26.6643C94.0932 26.8696 94.3798 27.1455 94.5906 27.4919C94.8015 27.8383 94.9069 28.2168 94.9069 28.6274C94.9069 29.0379 94.8015 29.4164 94.5906 29.7628C94.3798 30.1092 94.0932 30.3851 93.7309 30.5904C93.3751 30.7957 92.9831 30.8983 92.5549 30.8983ZM92.5747 30.6289C92.937 30.6289 93.273 30.5391 93.5827 30.3594C93.8923 30.1734 94.1361 29.9296 94.3139 29.6281C94.4984 29.3202 94.5906 28.9866 94.5906 28.6274C94.5906 28.2745 94.4984 27.9442 94.3139 27.6362C94.1295 27.3283 93.8824 27.0845 93.5728 26.9049C93.2631 26.7189 92.9271 26.6258 92.5648 26.6258C92.2024 26.6258 91.8631 26.7189 91.5469 26.9049C91.2372 27.0909 90.9869 27.3379 90.7958 27.6458C90.6114 27.9538 90.5191 28.2841 90.5191 28.637C90.5191 28.9898 90.6114 29.3202 90.7958 29.6281C90.9869 29.9296 91.2405 30.1734 91.5568 30.3594C91.873 30.5391 92.2123 30.6289 92.5747 30.6289ZM96.2828 25.4711C96.1906 25.4711 96.1082 25.4391 96.0358 25.3749C95.9699 25.3108 95.937 25.2306 95.937 25.1343C95.937 25.0445 95.9699 24.9675 96.0358 24.9034C96.1082 24.8392 96.1906 24.8072 96.2828 24.8072C96.3751 24.8072 96.4541 24.8392 96.52 24.9034C96.5925 24.9675 96.6287 25.0445 96.6287 25.1343C96.6287 25.2306 96.5925 25.3108 96.52 25.3749C96.4541 25.4391 96.3751 25.4711 96.2828 25.4711ZM96.1247 26.4623H96.441V30.7925H96.1247V26.4623ZM99.6043 30.8791C99.2947 30.8791 99.0114 30.8117 98.7544 30.677C98.4975 30.5358 98.2932 30.3402 98.1417 30.09C97.9902 29.8398 97.9144 29.5608 97.9144 29.2528V23.5755H98.2307V29.2528C98.2307 29.5094 98.2899 29.7404 98.4085 29.9457C98.5337 30.1509 98.7017 30.3145 98.9125 30.4364C99.1234 30.5519 99.3539 30.6096 99.6043 30.6096V30.8791ZM102.316 30.8791C102.006 30.8791 101.723 30.8117 101.466 30.677C101.209 30.5358 101.005 30.3402 100.853 30.09C100.702 29.8398 100.626 29.5608 100.626 29.2528V23.5755H100.942V29.2528C100.942 29.5094 101.002 29.7404 101.12 29.9457C101.245 30.1509 101.413 30.3145 101.624 30.4364C101.835 30.5519 102.066 30.6096 102.316 30.6096V30.8791ZM103.723 25.4711C103.631 25.4711 103.549 25.4391 103.476 25.3749C103.41 25.3108 103.377 25.2306 103.377 25.1343C103.377 25.0445 103.41 24.9675 103.476 24.9034C103.549 24.8392 103.631 24.8072 103.723 24.8072C103.815 24.8072 103.895 24.8392 103.96 24.9034C104.033 24.9675 104.069 25.0445 104.069 25.1343C104.069 25.2306 104.033 25.3108 103.96 25.3749C103.895 25.4391 103.815 25.4711 103.723 25.4711ZM103.565 26.4623H103.881V30.7925H103.565V26.4623ZM107.45 30.8983C107.029 30.8983 106.637 30.7957 106.274 30.5904C105.912 30.3851 105.625 30.1092 105.414 29.7628C105.204 29.41 105.098 29.0315 105.098 28.6274C105.098 28.2232 105.204 27.8479 105.414 27.5015C105.625 27.1487 105.912 26.8696 106.274 26.6643C106.637 26.4591 107.029 26.3564 107.45 26.3564C107.878 26.3564 108.284 26.4687 108.666 26.6932C109.048 26.9113 109.315 27.1968 109.466 27.5496V26.4623H109.782V30.7925H109.466V29.7147C109.288 30.074 109.012 30.3626 108.636 30.5808C108.267 30.7924 107.872 30.8983 107.45 30.8983ZM107.47 30.6289C107.832 30.6289 108.168 30.5391 108.478 30.3594C108.788 30.1734 109.031 29.9296 109.209 29.6281C109.394 29.3202 109.486 28.9866 109.486 28.6274C109.486 28.2745 109.394 27.9442 109.209 27.6362C109.025 27.3283 108.778 27.0845 108.468 26.9049C108.158 26.7189 107.822 26.6258 107.46 26.6258C107.098 26.6258 106.758 26.7189 106.442 26.9049C106.133 27.0909 105.882 27.3379 105.691 27.6458C105.507 27.9538 105.414 28.2841 105.414 28.637C105.414 28.9898 105.507 29.3202 105.691 29.6281C105.882 29.9296 106.136 30.1734 106.452 30.3594C106.768 30.5391 107.108 30.6289 107.47 30.6289ZM111.03 26.4623H111.346V27.463C111.478 27.1487 111.669 26.9017 111.919 26.7221C112.176 26.5425 112.466 26.4526 112.789 26.4526C112.993 26.4526 113.2 26.4943 113.411 26.5777V26.9338C113.22 26.7926 113.006 26.7221 112.769 26.7221C112.532 26.7221 112.301 26.7926 112.077 26.9338C111.86 27.0749 111.682 27.2641 111.544 27.5015C111.412 27.7389 111.346 27.9923 111.346 28.2617V30.7925H111.03V26.4623ZM115.991 30.8983C115.563 30.8983 115.167 30.7957 114.805 30.5904C114.449 30.3851 114.166 30.1092 113.955 29.7628C113.744 29.4164 113.639 29.0379 113.639 28.6274C113.639 28.2168 113.744 27.8383 113.955 27.4919C114.166 27.1455 114.449 26.8696 114.805 26.6643C115.167 26.4591 115.563 26.3564 115.991 26.3564C116.406 26.3564 116.801 26.4655 117.177 26.6836C117.552 26.8953 117.829 27.1743 118.007 27.5208V23.5755H118.323V30.7925H118.007V29.7436C117.809 30.09 117.523 30.3691 117.147 30.5808C116.778 30.7924 116.393 30.8983 115.991 30.8983ZM115.981 30.6289C116.343 30.6289 116.679 30.5391 116.989 30.3594C117.305 30.1734 117.556 29.9296 117.74 29.6281C117.931 29.3202 118.027 28.9898 118.027 28.637C118.027 28.2841 117.931 27.9538 117.74 27.6458C117.556 27.3379 117.305 27.0909 116.989 26.9049C116.679 26.7189 116.343 26.6258 115.981 26.6258C115.619 26.6258 115.283 26.7189 114.973 26.9049C114.663 27.0845 114.416 27.3283 114.232 27.6362C114.047 27.9442 113.955 28.2745 113.955 28.6274C113.955 28.9866 114.044 29.3202 114.222 29.6281C114.406 29.9296 114.653 30.1734 114.963 30.3594C115.279 30.5391 115.619 30.6289 115.981 30.6289ZM123.837 30.9175C123.409 30.9175 123.014 30.8181 122.651 30.6192C122.296 30.4204 122.012 30.1477 121.801 29.8013C121.591 29.4549 121.485 29.0636 121.485 28.6274C121.485 28.2232 121.591 27.8511 121.801 27.5111C122.012 27.1647 122.299 26.8889 122.661 26.6836C123.03 26.4783 123.435 26.3757 123.877 26.3757C124.246 26.3757 124.562 26.4334 124.825 26.5489C125.089 26.6643 125.346 26.844 125.596 27.0877V27.6074C125.379 27.293 125.135 27.0557 124.865 26.8953C124.601 26.7285 124.272 26.6451 123.877 26.6451C123.514 26.6451 123.172 26.7381 122.849 26.9241C122.533 27.1038 122.279 27.3475 122.088 27.6555C121.897 27.9634 121.801 28.2938 121.801 28.6466C121.801 29.0315 121.894 29.3779 122.078 29.6858C122.263 29.9874 122.51 30.2247 122.819 30.3979C123.135 30.5647 123.475 30.6481 123.837 30.6481C124.575 30.6481 125.161 30.3241 125.596 29.6762V30.1958C125.359 30.4396 125.095 30.6225 124.806 30.7443C124.522 30.8598 124.199 30.9175 123.837 30.9175ZM128.161 30.8791C127.851 30.8791 127.568 30.8117 127.311 30.677C127.054 30.5358 126.85 30.3402 126.698 30.09C126.547 29.8398 126.471 29.5608 126.471 29.2528V23.5755H126.787V29.2528C126.787 29.5094 126.846 29.7404 126.965 29.9457C127.09 30.1509 127.258 30.3145 127.469 30.4364C127.68 30.5519 127.91 30.6096 128.161 30.6096V30.8791ZM131.139 30.8983C130.513 30.8983 130.029 30.7315 129.687 30.3979C129.351 30.0643 129.183 29.5928 129.183 28.9834V26.4623H129.499V28.9834C129.499 29.5094 129.64 29.9168 129.924 30.2055C130.214 30.4877 130.619 30.6289 131.139 30.6289C131.455 30.6289 131.745 30.5615 132.009 30.4268C132.272 30.2857 132.48 30.09 132.631 29.8398C132.783 29.5896 132.859 29.3041 132.859 28.9834V26.4623H133.175V30.7925H132.859V29.9841C132.707 30.2536 132.48 30.4749 132.177 30.6481C131.874 30.8149 131.528 30.8983 131.139 30.8983ZM136.755 30.8983C136.353 30.8983 135.965 30.7924 135.589 30.5808C135.22 30.3691 134.937 30.09 134.739 29.7436V30.7925H134.423V23.5755H134.739V27.5592C134.917 27.1936 135.194 26.9017 135.569 26.6836C135.945 26.4655 136.34 26.3564 136.755 26.3564C137.184 26.3564 137.576 26.4591 137.931 26.6643C138.294 26.8696 138.58 27.1455 138.791 27.4919C139.002 27.8383 139.107 28.2168 139.107 28.6274C139.107 29.0379 139.002 29.4164 138.791 29.7628C138.58 30.1092 138.294 30.3851 137.931 30.5904C137.576 30.7957 137.184 30.8983 136.755 30.8983ZM136.775 30.6289C137.137 30.6289 137.473 30.5391 137.783 30.3594C138.093 30.1734 138.337 29.9296 138.514 29.6281C138.699 29.3202 138.791 28.9866 138.791 28.6274C138.791 28.2745 138.699 27.9442 138.514 27.6362C138.33 27.3283 138.083 27.0845 137.773 26.9049C137.464 26.7189 137.128 26.6258 136.765 26.6258C136.403 26.6258 136.064 26.7189 135.747 26.9049C135.438 27.0909 135.187 27.3379 134.996 27.6458C134.812 27.9538 134.72 28.2841 134.72 28.637C134.72 28.9898 134.812 29.3202 134.996 29.6281C135.187 29.9296 135.441 30.1734 135.757 30.3594C136.073 30.5391 136.413 30.6289 136.775 30.6289Z" fill="#532D00"/>
<path d="M81.9742 26.4879C81.8687 26.366 81.7534 26.2345 81.6283 26.0934C81.5097 25.9523 81.4076 25.7919 81.3219 25.6123C81.2429 25.4262 81.2033 25.2177 81.2033 24.9868C81.2033 24.7302 81.2626 24.4993 81.3812 24.294C81.5064 24.0887 81.6843 23.9283 81.9149 23.8128C82.1454 23.6909 82.4254 23.63 82.7549 23.63C83.0777 23.63 83.3445 23.7006 83.5553 23.8417C83.7727 23.9764 83.9341 24.1496 84.0396 24.3613C84.1516 24.5666 84.2076 24.7815 84.2076 25.006C84.2076 25.1664 84.1746 25.3204 84.1087 25.4679C84.0429 25.6155 83.9473 25.7598 83.8222 25.9009C83.7036 26.0357 83.5553 26.1704 83.3774 26.3051C83.1996 26.4398 82.9953 26.5745 82.7647 26.7092C82.5869 26.8119 82.3826 26.9209 82.152 27.0364C81.9214 27.1519 81.7007 27.2834 81.4899 27.4309C81.2791 27.5785 81.1045 27.7613 80.9661 27.9794C80.8278 28.1911 80.7586 28.4542 80.7586 28.7685C80.7586 29.0893 80.8377 29.3651 80.9958 29.596C81.1539 29.827 81.368 30.0002 81.6381 30.1157C81.9083 30.2311 82.208 30.2889 82.5374 30.2889C82.9327 30.2889 83.2885 30.2055 83.6047 30.0387C83.921 29.8655 84.2141 29.641 84.4843 29.3651C84.7544 29.0828 85.0113 28.7749 85.2551 28.4413C85.5054 28.1013 85.7558 27.7645 86.0061 27.4309L86.2433 27.5753C85.9798 27.9089 85.7196 28.2521 85.4626 28.6049C85.2123 28.9577 84.9454 29.2817 84.6622 29.5768C84.3789 29.8719 84.0626 30.1125 83.7134 30.2985C83.3643 30.4781 82.969 30.5679 82.5276 30.5679C82.152 30.5679 81.8062 30.5006 81.4899 30.3659C81.1737 30.2247 80.92 30.0194 80.729 29.75C80.5379 29.4806 80.4424 29.1566 80.4424 28.7781C80.4424 28.4959 80.4918 28.2489 80.5906 28.0372C80.696 27.8255 80.8311 27.6426 80.9958 27.4887C81.1605 27.3283 81.3384 27.1904 81.5294 27.0749C81.7205 26.9594 81.905 26.86 82.0829 26.7766C82.2673 26.6868 82.4254 26.6034 82.5572 26.5264C82.9789 26.2826 83.3083 26.0357 83.5454 25.7855C83.7826 25.5353 83.9012 25.2755 83.9012 25.006C83.9012 24.8264 83.8584 24.6532 83.7727 24.4864C83.6937 24.3196 83.5685 24.1817 83.3972 24.0726C83.2325 23.9572 83.0184 23.8994 82.7549 23.8994C82.3464 23.8994 82.0367 24.0053 81.8259 24.217C81.6217 24.4287 81.5196 24.6853 81.5196 24.9868C81.5196 25.2883 81.592 25.5385 81.737 25.7374C81.8885 25.9362 82.0433 26.1287 82.2014 26.3147L85.937 30.4717H85.5614L81.9742 26.4879Z" fill="#532D00"/>
</g>
<defs>
<clipPath id="clip0_313_69">
<rect width="140" height="34" fill="white"/>
</clipPath>
</defs>
</svg>
